<svg width="1544" height="1000" viewBox="0 0 1544 500" fill="none" xmlns="http://www.w3.org/2000/svg">
<g clip-path="url(#clip0_10_41)">
<mask id="mask0_10_41" style="mask-type:alpha" maskUnits="userSpaceOnUse" x="88" y="26" width="373" height="466">
<path d="M218.809 132.074L247.302 121.726V426.083H218.809V132.074Z" fill="#FC8117"/>
<path d="M432.507 58.0308L461 47.9028V345.785H432.507V58.0308Z" fill="#FC8117"/>
<path d="M123.095 491.165C119.345 492.874 115.028 490.382 114.634 486.28L112.67 465.871C112.203 461.015 117.417 457.661 121.642 460.1L142.263 472.006C146.487 474.445 146.19 480.638 141.751 482.661L123.095 491.165Z" fill="#FC8117"/>
<ellipse cx="167.651" cy="425.436" rx="79.651" ry="60.224" fill="#FC8117"/>
<path d="M425.905 410.866C429.655 412.575 433.972 410.083 434.366 405.982L436.33 385.572C436.797 380.717 431.582 377.363 427.358 379.802L406.737 391.707C402.513 394.146 402.81 400.339 407.249 402.363L425.905 410.866Z" fill="#FC8117"/>
<ellipse cx="79.651" cy="60.224" rx="79.651" ry="60.224" transform="matrix(-1 0 0 1 461 286.208)" fill="#FC8117"/>
<path d="M218.809 143.532V120.224C218.809 116.062 221.387 112.335 225.281 110.867L447.472 27.1C454.012 24.6343 461 29.4676 461 36.4571V59.7653C461 63.9273 458.422 67.6542 454.528 69.1224L232.337 152.89C225.797 155.355 218.809 150.522 218.809 143.532Z" fill="#FC8117"/>
<path d="M218.809 252.535V207.852L461 116.545V161.227L218.809 252.535Z" fill="#FC8117"/>
</mask>
<g mask="url(#mask0_10_41)">
<rect x="36.1945" y="-25.9201" width="531.007" height="581.517" fill="url(#paint0_linear_10_41)"/>
	<animateTransform 
		attributeName="transform" 
		type="translate" 
		dur="1.3s" 
		repeatCount="indefinite" 
		values="0 10; 0 -10; 0 10"
	/>
</g>
<path d="M15.616 293V113.8H58.624V184.2H128.512V113.8H171.52V293H128.512V220.04H58.624V293H15.616Z" fill="#FFB175">
	<animateTransform 
		attributeName="transform" 
		type="translate" 
		dur="1s" 
		repeatCount="indefinite" 
		values="0 0; 0 -20; 0 0; 0 0"
		keyTimes="0; 0.10; 0.20; 1"
	/>
</path>
<path d="M513.616 293V113.8H595.536C607.653 113.8 618.661 116.445 628.56 121.736C638.629 127.027 646.565 134.365 652.368 143.752C658.341 153.139 661.328 163.976 661.328 176.264C661.328 187.699 658.597 198.024 653.136 207.24C647.675 216.285 640.507 223.624 631.632 229.256L645.968 253.576C646.821 254.771 647.76 255.709 648.784 256.392C649.979 257.075 651.515 257.416 653.392 257.416H669.264V293H644.176C636.496 293 629.499 291.208 623.184 287.624C616.869 283.869 611.92 279.005 608.336 273.032L589.136 238.984C587.941 238.984 586.661 238.984 585.296 238.984C584.101 238.984 582.821 238.984 581.456 238.984H556.624V293H513.616ZM556.624 203.4H590.672C595.621 203.4 600.229 202.376 604.496 200.328C608.763 198.109 612.091 195.037 614.48 191.112C617.04 187.016 618.32 182.152 618.32 176.52C618.32 170.888 617.04 166.109 614.48 162.184C611.92 158.088 608.507 155.016 604.24 152.968C600.144 150.749 595.621 149.64 590.672 149.64H556.624V203.4Z" fill="#FC8117">
	<animateTransform 
		attributeName="transform" 
		type="translate" 
		dur="1s" 
		repeatCount="indefinite" 
		values="0 0; 0 -20; 0 0; 0 0"
		keyTimes="0; 0.10; 0.20; 1"
		begin="0.3s"
	/>
</path>
<path d="M814.824 296.072C804.413 296.072 794.856 293.768 786.152 289.16C777.619 284.552 770.792 278.152 765.672 269.96C760.723 261.768 758.248 252.04 758.248 240.776V162.696C758.248 159.965 757.565 157.491 756.2 155.272C754.835 153.053 753.043 151.261 750.824 149.896C748.605 148.531 746.131 147.848 743.4 147.848C740.669 147.848 738.195 148.531 735.976 149.896C733.757 151.261 731.965 153.053 730.6 155.272C729.405 157.491 728.808 159.965 728.808 162.696V293H686.824V165.768C686.824 155.016 689.213 145.544 693.992 137.352C698.941 129.16 705.683 122.675 714.216 117.896C722.92 113.117 732.648 110.728 743.4 110.728C754.323 110.728 764.051 113.117 772.584 117.896C781.117 122.675 787.859 129.16 792.808 137.352C797.757 145.544 800.232 155.016 800.232 165.768V243.848C800.232 246.749 800.915 249.309 802.28 251.528C803.645 253.747 805.352 255.539 807.4 256.904C809.619 258.099 812.008 258.696 814.568 258.696C817.299 258.696 819.773 258.099 821.992 256.904C824.381 255.539 826.259 253.747 827.624 251.528C828.989 249.309 829.672 246.749 829.672 243.848V165.768C829.672 155.016 832.147 145.544 837.096 137.352C842.045 129.16 848.787 122.675 857.32 117.896C866.024 113.117 875.667 110.728 886.248 110.728C897.171 110.728 906.813 113.117 915.176 117.896C923.709 122.675 930.451 129.16 935.4 137.352C940.349 145.544 942.824 155.016 942.824 165.768V293H900.84V162.44C900.84 159.709 900.157 157.32 898.792 155.272C897.597 153.053 895.891 151.261 893.672 149.896C891.453 148.531 888.979 147.848 886.248 147.848C883.688 147.848 881.213 148.531 878.824 149.896C876.605 151.261 874.813 153.053 873.448 155.272C872.083 157.32 871.4 159.709 871.4 162.44V240.776C871.4 252.04 868.84 261.768 863.72 269.96C858.6 278.152 851.773 284.552 843.24 289.16C834.707 293.768 825.235 296.072 814.824 296.072Z" fill="#FC8117">
	<animateTransform 
		attributeName="transform" 
		type="translate" 
		dur="1s" 
		repeatCount="indefinite" 
		values="0 0; 0 -20; 0 0; 0 0"
		keyTimes="0; 0.10; 0.20; 1"
		begin="0.45s"
	/>
</path>
<path d="M1059.4 296.328C1045.06 296.328 1032.09 293.939 1020.49 289.16C1008.88 284.381 998.899 277.725 990.536 269.192C982.173 260.659 975.688 250.76 971.08 239.496C966.643 228.232 964.424 216.115 964.424 203.144C964.424 190.173 966.643 178.056 971.08 166.792C975.688 155.528 982.088 145.715 990.28 137.352C998.643 128.819 1008.63 122.248 1020.23 117.64C1032.01 112.861 1045.06 110.472 1059.4 110.472C1073.57 110.472 1086.45 112.861 1098.06 117.64C1109.83 122.248 1119.82 128.819 1128.01 137.352C1136.37 145.715 1142.86 155.613 1147.46 167.048C1152.07 178.312 1154.38 190.344 1154.38 203.144C1154.38 216.115 1152.07 228.232 1147.46 239.496C1142.86 250.76 1136.37 260.659 1128.01 269.192C1119.82 277.725 1109.83 284.381 1098.06 289.16C1086.45 293.939 1073.57 296.328 1059.4 296.328ZM1059.4 259.72C1066.91 259.72 1073.82 258.355 1080.14 255.624C1086.62 252.723 1092.17 248.712 1096.78 243.592C1101.38 238.472 1104.97 232.499 1107.53 225.672C1110.09 218.675 1111.37 211.165 1111.37 203.144C1111.37 195.123 1110.09 187.699 1107.53 180.872C1104.97 174.045 1101.38 168.072 1096.78 162.952C1092.17 157.832 1086.62 153.907 1080.14 151.176C1073.82 148.275 1066.91 146.824 1059.4 146.824C1051.72 146.824 1044.72 148.275 1038.41 151.176C1032.09 153.907 1026.55 157.832 1021.77 162.952C1017.16 168.072 1013.58 174.131 1011.02 181.128C1008.63 187.955 1007.43 195.293 1007.43 203.144C1007.43 211.165 1008.63 218.675 1011.02 225.672C1013.58 232.499 1017.16 238.472 1021.77 243.592C1026.55 248.712 1032.09 252.723 1038.41 255.624C1044.72 258.355 1051.72 259.72 1059.4 259.72Z" fill="#FC8117">
	<animateTransform 
		attributeName="transform" 
		type="translate" 
		dur="1s" 
		repeatCount="indefinite" 
		values="0 0; 0 -20; 0 0; 0 0"
		keyTimes="0; 0.10; 0.20; 1"
		begin="0.6s"
	/>
</path>
<path d="M1303.82 296.072C1293.07 296.072 1283.43 293.768 1274.9 289.16C1266.36 284.381 1259.62 277.811 1254.67 269.448C1249.72 261.085 1247.25 251.613 1247.25 241.032V162.696C1247.25 159.965 1246.57 157.491 1245.2 155.272C1243.83 153.053 1242.04 151.261 1239.82 149.896C1237.61 148.531 1235.13 147.848 1232.4 147.848C1229.67 147.848 1227.19 148.531 1224.98 149.896C1222.76 151.261 1220.97 153.053 1219.6 155.272C1218.41 157.491 1217.81 159.965 1217.81 162.696V293H1175.82V165.768C1175.82 155.016 1178.21 145.544 1182.99 137.352C1187.94 129.16 1194.68 122.675 1203.22 117.896C1211.92 113.117 1221.65 110.728 1232.4 110.728C1243.32 110.728 1253.05 113.117 1261.58 117.896C1270.12 122.675 1276.86 129.16 1281.81 137.352C1286.76 145.544 1289.23 155.016 1289.23 165.768V244.104C1289.23 246.835 1289.91 249.395 1291.28 251.784C1292.65 254.003 1294.35 255.795 1296.4 257.16C1298.62 258.355 1301.01 258.952 1303.57 258.952C1306.3 258.952 1308.77 258.355 1310.99 257.16C1313.38 255.795 1315.26 254.003 1316.62 251.784C1317.99 249.395 1318.67 246.835 1318.67 244.104V113.8H1360.4V241.032C1360.4 251.613 1357.93 261.085 1352.98 269.448C1348.03 277.811 1341.29 284.381 1332.75 289.16C1324.22 293.768 1314.58 296.072 1303.82 296.072Z" fill="#FC8117">
	<animateTransform 
		attributeName="transform" 
		type="translate" 
		dur="1s" 
		repeatCount="indefinite" 
		values="0 0; 0 -20; 0 0; 0 0"
		keyTimes="0; 0.10; 0.20; 1"
		begin="0.75s"
	/>
</path>
<path d="M1434.86 293V244.104C1423.94 241.544 1414.38 237.107 1406.19 230.792C1398.17 224.307 1391.94 216.2 1387.5 206.472C1383.07 196.573 1380.85 185.224 1380.85 172.424V113.8H1422.83V174.728C1422.83 181.213 1424.2 187.187 1426.93 192.648C1429.66 197.939 1433.5 202.205 1438.45 205.448C1443.57 208.52 1449.54 210.056 1456.37 210.056C1463.19 210.056 1469.08 208.52 1474.03 205.448C1479.15 202.205 1483.08 197.939 1485.81 192.648C1488.54 187.187 1489.9 181.213 1489.9 174.728V113.8H1531.89V172.424C1531.89 185.224 1529.67 196.573 1525.23 206.472C1520.79 216.2 1514.48 224.307 1506.29 230.792C1498.1 237.277 1488.54 241.715 1477.62 244.104V293H1434.86Z" fill="#FC8117">
	<animateTransform 
		attributeName="transform" 
		type="translate" 
		dur="1s" 
		repeatCount="indefinite" 
		values="0 0; 0 -20; 0 0; 0 0"
		keyTimes="0; 0.10; 0.20; 1"
		begin="0.9s"
	/>
</path>
</g>
<defs>
<linearGradient id="paint0_linear_10_41" x1="554" y1="245" x2="152.5" y2="404.5" gradientUnits="userSpaceOnUse">
<stop offset="0.328079" stop-color="#FC8117"/>
<stop offset="1" stop-color="#FFB175"/>
</linearGradient>
<clipPath id="clip0_10_41">
<rect width="1544" height="500" fill="white"/>
</clipPath>
</defs>
</svg>
