<svg width="500" height="500" viewBox="0 0 500 500" fill="none" xmlns="http://www.w3.org/2000/svg">
<mask id="mask0_10_5" style="mask-type:alpha" maskUnits="userSpaceOnUse" x="64" y="11" width="373" height="466">
<path d="M194.809 117.074L223.302 106.726V411.083H194.809V117.074Z" fill="#FC8117"/>
<path d="M408.507 43.0308L437 32.9028V330.785H408.507V43.0308Z" fill="#FC8117"/>
<path d="M99.0946 476.165C95.3451 477.874 91.0283 475.382 90.6336 471.28L88.6698 450.871C88.2025 446.015 93.4175 442.661 97.6422 445.1L118.263 457.006C122.487 459.445 122.19 465.638 117.751 467.661L99.0946 476.165Z" fill="#FC8117"/>
<ellipse cx="143.651" cy="410.436" rx="79.651" ry="60.224" fill="#FC8117"/>
<path d="M401.905 395.866C405.655 397.575 409.972 395.083 410.366 390.982L412.33 370.572C412.797 365.717 407.582 362.363 403.358 364.802L382.737 376.707C378.513 379.146 378.81 385.339 383.249 387.363L401.905 395.866Z" fill="#FC8117"/>
<ellipse cx="79.651" cy="60.224" rx="79.651" ry="60.224" transform="matrix(-1 0 0 1 437 271.208)" fill="#FC8117"/>
<path d="M194.809 128.532V105.224C194.809 101.062 197.387 97.3354 201.281 95.8672L423.472 12.1C430.012 9.63433 437 14.4676 437 21.4571V44.7653C437 48.9273 434.422 52.6542 430.528 54.1224L208.337 137.89C201.797 140.355 194.809 135.522 194.809 128.532Z" fill="#FC8117"/>
<path d="M194.809 237.535V192.852L437 101.545V146.227L194.809 237.535Z" fill="#FC8117"/>
</mask>
<g mask="url(#mask0_10_5)">
<rect x="12.1945" y="-40.9201" width="531.007" height="581.517" fill="url(#paint0_linear_10_5)"/>
</g>
<defs>
<linearGradient id="paint0_linear_10_5" x1="530" y1="230" x2="128.5" y2="389.5" gradientUnits="userSpaceOnUse">
<stop offset="0.328079" stop-color="#FC8117"/>
<stop offset="1" stop-color="#FFB175"/>
</linearGradient>
</defs>
</svg>
